<svg width="24" height="24" viewBox="0 0 24 24" fill="none" xmlns="http://www.w3.org/2000/svg">
<path d="M15.816 5.00003C15.6124 4.41549 15.2318 3.9088 14.7273 3.55026C14.2227 3.19172 13.619 2.99908 13 2.99908C12.381 2.99908 11.7773 3.19172 11.2727 3.55026C10.7682 3.9088 10.3876 4.41549 10.184 5.00003H3V7.00003H10.184C10.3876 7.58457 10.7682 8.09126 11.2727 8.4498C11.7773 8.80834 12.381 9.00098 13 9.00098C13.619 9.00098 14.2227 8.80834 14.7273 8.4498C15.2318 8.09126 15.6124 7.58457 15.816 7.00003H21V5.00003H15.816ZM13 7.00003C12.8022 7.00003 12.6089 6.94138 12.4444 6.8315C12.28 6.72162 12.1518 6.56544 12.0761 6.38271C12.0004 6.19999 11.9806 5.99892 12.0192 5.80494C12.0578 5.61096 12.153 5.43278 12.2929 5.29292C12.4327 5.15307 12.6109 5.05783 12.8049 5.01924C12.9989 4.98066 13.2 5.00046 13.3827 5.07615C13.5654 5.15184 13.7216 5.28001 13.8315 5.44446C13.9414 5.60891 14 5.80225 14 6.00003C14 6.26525 13.8946 6.5196 13.7071 6.70714C13.5196 6.89467 13.2652 7.00003 13 7.00003Z" fill="black"/>
<path d="M7 9C6.38174 9.00256 5.77937 9.19608 5.2753 9.55409C4.77123 9.91209 4.39008 10.4171 4.184 11H3V13H4.184C4.38765 13.5845 4.76815 14.0912 5.27275 14.4498C5.77734 14.8083 6.381 15.0009 7 15.0009C7.619 15.0009 8.22266 14.8083 8.72725 14.4498C9.23185 14.0912 9.61235 13.5845 9.816 13H21V11H9.816C9.60992 10.4171 9.22877 9.91209 8.7247 9.55409C8.22063 9.19608 7.61826 9.00256 7 9ZM7 13C6.80222 13 6.60888 12.9414 6.44443 12.8315C6.27998 12.7216 6.15181 12.5654 6.07612 12.3827C6.00043 12.2 5.98063 11.9989 6.01921 11.8049C6.0578 11.6109 6.15304 11.4327 6.29289 11.2929C6.43275 11.153 6.61093 11.0578 6.80491 11.0192C6.99889 10.9806 7.19996 11.0004 7.38268 11.0761C7.56541 11.1518 7.72159 11.28 7.83147 11.4444C7.94135 11.6089 8 11.8022 8 12C8 12.2652 7.89464 12.5196 7.70711 12.7071C7.51957 12.8946 7.26522 13 7 13Z" fill="black"/>
<path d="M16 15C15.3817 15.0026 14.7794 15.1961 14.2753 15.5541C13.7712 15.9121 13.3901 16.4171 13.184 17H3V19H13.184C13.3876 19.5845 13.7682 20.0912 14.2727 20.4498C14.7773 20.8083 15.381 21.0009 16 21.0009C16.619 21.0009 17.2227 20.8083 17.7273 20.4498C18.2318 20.0912 18.6124 19.5845 18.816 19H21V17H18.816C18.6099 16.4171 18.2288 15.9121 17.7247 15.5541C17.2206 15.1961 16.6183 15.0026 16 15ZM16 19C15.8022 19 15.6089 18.9414 15.4444 18.8315C15.28 18.7216 15.1518 18.5654 15.0761 18.3827C15.0004 18.2 14.9806 17.9989 15.0192 17.8049C15.0578 17.6109 15.153 17.4327 15.2929 17.2929C15.4327 17.153 15.6109 17.0578 15.8049 17.0192C15.9989 16.9806 16.2 17.0004 16.3827 17.0761C16.5654 17.1518 16.7216 17.28 16.8315 17.4444C16.9414 17.6089 17 17.8022 17 18C17 18.2652 16.8946 18.5196 16.7071 18.7071C16.5196 18.8946 16.2652 19 16 19Z" fill="black"/>
</svg>
